<?xml version="1.0" standalone="no"?>
<!DOCTYPE svg PUBLIC "-//W3C//DTD SVG 20010904//EN"
 "http://www.w3.org/TR/2001/REC-SVG-20010904/DTD/svg10.dtd">
<svg version="1.0" xmlns="http://www.w3.org/2000/svg"
 width="620.000000pt" height="620.000000pt" viewBox="0 0 620.000000 620.000000"
 preserveAspectRatio="xMidYMid meet">

<g transform="translate(0.000000,620.000000) scale(0.100000,-0.100000)"
fill="#000000" stroke="none">
<path d="M3505 5519 c-11 -7 -37 -26 -58 -42 -38 -30 -39 -30 -102 -19 -92 17
-302 15 -388 -4 -40 -9 -104 -33 -143 -54 l-71 -38 -57 49 c-43 36 -66 49 -89
49 -18 0 -86 -25 -152 -56 -66 -30 -191 -87 -278 -126 -216 -97 -237 -123
-206 -258 23 -102 178 -382 277 -499 l29 -35 37 67 c20 36 46 91 56 121 22 61
65 269 76 364 5 45 15 75 38 109 38 58 104 128 112 120 3 -3 -1 -25 -9 -49 -8
-24 -20 -61 -27 -83 -7 -22 -18 -47 -25 -55 -7 -8 -15 -44 -19 -80 -16 -160
-76 -385 -127 -477 -16 -29 -29 -58 -29 -64 0 -6 16 -47 36 -91 78 -173 60
-266 -69 -349 -46 -30 -56 -40 -43 -45 15 -6 13 -11 -15 -40 l-32 -33 27 -11
c15 -5 33 -10 41 -10 10 0 6 -20 -16 -80 -17 -48 -29 -100 -29 -129 0 -33 -14
-88 -41 -163 -92 -255 -100 -286 -110 -428 -21 -288 -22 -300 -6 -300 10 0 25
-26 41 -68 22 -56 26 -84 26 -169 0 -119 1 -117 -111 -154 -66 -22 -117 -59
-140 -101 -8 -16 -6 -18 21 -18 l31 0 -22 -22 c-33 -35 -84 -118 -102 -168
-74 -199 -61 -401 46 -733 14 -42 22 -79 18 -80 -3 -2 -123 -4 -266 -5 -298
-1 -406 -7 -523 -29 -172 -33 -206 -107 -99 -214 116 -115 330 -161 837 -179
151 -5 285 -10 298 -10 14 0 22 -6 22 -17 0 -34 59 -121 97 -144 43 -27 106
-33 318 -30 110 2 123 4 158 27 21 14 51 46 65 70 l27 46 260 -5 c235 -4 260
-6 270 -22 56 -96 113 -119 290 -117 33 1 90 1 128 1 37 0 83 5 102 11 46 15
110 89 124 144 l11 44 224 4 c209 3 226 4 253 24 15 12 51 24 78 28 83 13 110
40 65 68 -35 22 -22 28 63 28 95 0 254 18 280 31 45 25 5 51 -98 65 -27 3 -59
8 -70 10 -11 2 -56 6 -100 9 -138 10 -143 12 -165 54 -27 53 -113 128 -171
148 -27 10 -49 22 -49 26 0 5 11 46 25 91 67 223 80 492 31 656 -14 48 -50
124 -69 148 -6 8 -13 23 -14 35 -9 56 -92 117 -200 146 l-41 11 -4 98 c-4 83
-1 108 21 174 14 42 28 75 32 72 12 -7 21 152 14 239 -13 157 -39 285 -101
500 -37 129 -39 141 -24 132 6 -3 10 -2 10 3 0 28 -42 206 -58 250 -11 29 -16
52 -12 52 5 0 10 10 12 23 2 16 -11 36 -48 72 -56 55 -94 138 -94 205 0 32 44
196 56 209 2 2 10 -2 18 -8 8 -7 27 -11 43 -9 54 6 208 255 297 481 53 135 63
185 47 245 -21 75 -57 104 -254 201 -246 120 -357 164 -432 168 -34 2 -69 -1
-80 -8z m136 -105 c30 -9 67 -23 82 -31 26 -13 27 -16 12 -27 -26 -19 -16 -60
15 -63 25 -3 25 -3 3 7 -29 12 -32 45 -3 37 13 -3 20 0 20 9 0 8 5 14 10 14 6
0 10 -6 10 -14 0 -7 7 -20 16 -27 14 -12 14 -14 -3 -20 -15 -7 -15 -8 6 -8 20
-1 22 3 17 24 -6 23 -5 24 19 15 48 -18 85 -41 85 -51 0 -6 6 -9 13 -6 17 6
177 -79 205 -109 25 -29 29 -81 10 -135 l-13 -34 -5 34 c-8 56 -30 51 -28 -6
l1 -48 6 45 7 45 5 -45 c7 -58 -14 -118 -44 -122 -19 -3 -22 -9 -19 -40 2 -31
-9 -59 -59 -148 -34 -60 -68 -110 -75 -110 -8 0 -11 -6 -8 -15 4 -8 1 -15 -4
-15 -8 0 -62 101 -62 116 0 2 7 4 15 4 11 0 15 11 15 41 0 38 -2 40 -27 37
-23 -3 -28 2 -35 31 -6 23 -6 36 2 41 13 8 8 49 -9 59 -7 5 -15 28 -18 51 -5
37 -4 42 10 37 9 -3 19 -1 23 5 4 6 3 8 -3 5 -14 -9 -37 19 -28 33 3 6 11 7
17 4 6 -4 5 -10 -3 -15 -11 -7 -10 -9 4 -9 28 0 17 33 -13 40 -19 4 -26 13
-28 35 -2 17 -10 34 -18 38 -8 5 -12 12 -9 17 3 4 -2 10 -10 14 -9 3 -16 19
-16 38 -1 24 -3 27 -6 11 -5 -28 -19 -29 -35 -3 -14 22 -33 26 -43 10 -4 -6 5
-41 19 -78 15 -39 32 -117 41 -187 20 -155 32 -214 60 -289 23 -60 23 -62 6
-131 -13 -51 -22 -71 -35 -73 -15 -3 -17 -11 -13 -45 3 -24 -1 -69 -10 -105
-14 -57 -14 -68 1 -130 9 -37 16 -77 16 -89 0 -13 4 -22 10 -20 13 3 72 -87
59 -92 -6 -2 -3 -11 7 -22 16 -17 16 -19 1 -19 -10 0 -17 -5 -17 -11 0 -6 9
-9 19 -6 33 8 58 -71 71 -224 5 -58 18 -133 29 -167 12 -33 18 -69 14 -79 -3
-10 -2 -14 2 -10 5 4 15 -12 22 -35 17 -58 16 -65 -7 -71 -14 -4 -20 -14 -20
-32 0 -24 3 -27 26 -22 30 5 44 -21 44 -82 0 -20 5 -42 12 -49 20 -20 23 -243
4 -334 -9 -42 -16 -80 -16 -83 0 -3 -6 -5 -13 -5 -7 0 -13 -8 -14 -17 -1 -10
-3 -61 -6 -113 -3 -54 -10 -95 -15 -95 -6 0 -14 -3 -18 -7 -4 -5 0 -8 9 -8 23
0 22 -11 -17 -141 -61 -201 -77 -272 -83 -367 -5 -82 -8 -92 -25 -92 -15 0
-19 -6 -16 -27 2 -16 8 -27 16 -26 8 2 12 -14 12 -56 0 -50 -3 -59 -20 -64
-12 -3 -20 -14 -20 -26 0 -11 9 -25 20 -31 17 -9 20 -21 20 -80 0 -64 -10 -88
-24 -57 -3 6 -5 3 -3 -8 1 -11 7 -18 12 -15 13 6 22 -40 24 -112 1 -37 -3 -58
-10 -58 -7 0 -9 10 -5 25 5 19 2 25 -10 25 -11 0 -14 -5 -10 -16 3 -9 6 -22 6
-30 0 -8 7 -14 16 -14 14 0 16 -8 10 -46 -3 -26 -6 -55 -6 -65 0 -12 -7 -19
-20 -19 -11 0 -20 -4 -20 -9 0 -5 7 -8 16 -7 9 0 19 -5 21 -11 3 -8 -4 -13
-16 -13 -12 0 -21 -5 -21 -11 0 -7 9 -9 24 -5 20 5 25 1 31 -21 3 -15 14 -43
24 -63 14 -30 15 -38 4 -48 -7 -7 -13 -18 -12 -25 0 -9 2 -9 6 1 8 20 29 14
47 -13 21 -31 20 -42 -4 -88 -11 -20 -20 -45 -20 -56 0 -30 -32 -60 -70 -63
l-34 -3 3 88 3 88 -30 -15 c-30 -16 -52 -58 -52 -103 0 -47 -17 -63 -65 -63
-38 0 -45 3 -45 20 0 12 5 17 14 14 8 -3 17 -1 21 5 3 6 -1 11 -9 11 -19 0
-21 31 -3 49 7 8 7 11 1 8 -8 -4 -14 6 -18 28 -4 19 -10 35 -14 35 -12 0 -36
-42 -52 -90 -19 -57 -46 -62 -44 -7 1 38 -12 50 -23 20 -6 -15 -7 -15 -14 3
-4 10 -8 36 -8 57 -1 34 1 37 28 37 17 0 33 4 36 10 3 5 2 10 -4 10 -5 0 -8
14 -6 30 3 22 0 30 -12 30 -10 0 -13 5 -9 17 14 36 25 103 31 198 4 55 11 107
16 115 7 12 8 10 9 -7 0 -15 6 -23 18 -22 10 0 12 3 5 6 -7 2 -13 14 -13 25 0
14 5 18 16 14 9 -3 12 -2 8 5 -3 6 -15 9 -25 6 -17 -5 -19 1 -19 59 0 60 2 64
23 64 20 1 21 2 5 14 -23 17 -23 26 0 26 16 1 16 2 -2 15 -16 12 -18 22 -10
82 4 37 10 58 12 46 5 -33 19 -28 19 7 0 18 -6 30 -14 30 -19 0 -18 94 2 114
18 17 20 46 4 46 -14 0 -3 114 15 168 11 30 10 48 -6 114 -10 43 -27 96 -38
118 -11 22 -20 53 -20 70 0 38 -27 52 -46 25 -21 -28 -17 -45 9 -44 15 1 17 3
6 6 -11 3 -15 11 -12 24 6 21 25 27 22 7 -1 -7 2 -22 6 -32 6 -13 3 -22 -7
-30 -31 -23 -79 -102 -94 -155 -20 -70 -32 -85 -50 -70 -11 9 -14 7 -14 -7 0
-37 13 -64 29 -63 10 0 11 2 4 6 -20 8 -16 43 5 43 10 0 33 13 52 30 18 16 37
27 43 23 5 -3 7 -33 3 -72 -3 -36 -11 -124 -17 -195 -5 -72 -15 -136 -21 -143
-7 -9 -7 -13 1 -13 6 0 11 -9 11 -20 0 -13 -7 -20 -20 -20 -11 0 -20 -4 -20
-10 0 -5 9 -10 20 -10 13 0 20 -7 20 -19 0 -30 -11 -51 -26 -51 -8 0 -14 -5
-14 -11 0 -6 7 -8 16 -5 14 5 15 -3 9 -76 -4 -46 -12 -86 -17 -89 -6 -4 -7
-25 -3 -51 12 -81 -27 -303 -58 -335 -4 -3 -7 -28 -7 -55 l0 -48 -120 0 -120
0 0 1490 0 1490 39 0 c21 0 58 7 82 16 24 9 63 16 86 15 98 -4 163 45 193 145
11 35 15 40 36 36 28 -5 32 13 7 40 -15 17 -15 18 8 19 l24 1 -25 7 c-21 6
-26 15 -33 61 -5 30 -9 72 -9 94 0 23 -4 33 -9 25 -8 -14 -11 -8 -43 81 -9 25
-27 58 -41 74 -21 26 -26 28 -40 16 -22 -18 -14 -81 26 -205 34 -108 35 -113
12 -132 -17 -14 -17 -14 0 -9 19 6 24 -18 6 -29 -6 -4 -8 -13 -5 -21 3 -8 1
-14 -5 -14 -6 0 -9 -6 -6 -14 3 -8 -4 -30 -17 -48 -20 -30 -26 -33 -76 -34
-30 0 -89 7 -130 16 l-75 16 -3 48 c-4 63 3 83 23 66 8 -7 15 -23 15 -36 0
-24 17 -41 28 -29 4 4 1 10 -5 12 -23 8 -14 47 12 60 20 9 25 8 25 -3 0 -7 10
-23 23 -35 l22 -22 -22 6 c-13 3 -23 1 -23 -4 0 -13 38 -11 46 3 4 6 1 16 -7
22 -20 15 -12 46 22 81 61 61 67 150 16 226 -29 44 -111 99 -148 99 l-29 0 0
-185 0 -185 -29 0 c-37 0 -110 26 -134 48 -36 31 -59 98 -52 150 5 42 1 36
-31 -48 -66 -174 -68 -247 -9 -306 29 -29 55 -30 160 -4 44 11 83 20 88 20 4
0 7 -32 7 -70 0 -83 -7 -89 -84 -71 -28 6 -80 16 -116 21 -71 11 -103 29 -137
79 -28 41 -46 129 -37 178 9 49 65 212 98 284 25 53 29 56 83 74 32 10 88 20
126 23 l67 5 0 423 0 424 98 0 c72 0 115 -5 158 -20 32 -11 62 -20 65 -20 4 0
35 23 69 50 34 28 70 50 79 50 10 0 42 -7 72 -16z m-788 -338 c18 -7 41 -23
51 -35 l19 -21 -48 21 c-39 17 -61 21 -117 17 -37 -3 -68 -4 -68 -2 0 2 12 10
28 18 34 19 93 20 135 2z m-101 -58 c18 -9 43 -47 36 -54 -2 -2 -21 1 -42 7
-49 14 -101 4 -148 -27 -42 -27 -44 -25 -24 14 36 70 110 95 178 60z m46 -153
c70 -59 37 -157 -52 -157 -59 0 -95 50 -82 114 l6 30 -26 -17 c-37 -24 -42
-10 -9 25 25 26 36 30 81 30 41 0 59 -5 82 -25z m1295 0 c-7 -21 -13 -19 -13
6 0 11 4 18 10 14 5 -3 7 -12 3 -20z m-213 -135 c0 -32 -14 -40 -24 -14 -10
27 -7 44 9 44 10 0 15 -10 15 -30z m-332 -639 c3 -8 -1 -12 -9 -9 -7 2 -15 10
-17 17 -3 8 1 12 9 9 7 -2 15 -10 17 -17z m419 -791 c3 -10 2 -11 -4 -4 -4 6
-15 14 -23 17 -11 5 -9 6 4 4 11 -1 21 -9 23 -17z m-17 -10 c0 -5 -4 -10 -10
-10 -5 0 -10 5 -10 10 0 6 5 10 10 10 6 0 10 -4 10 -10z m-1705 -862 c4 -22
23 -93 42 -157 74 -251 92 -511 56 -794 -13 -109 -14 -146 -5 -218 17 -126 16
-135 -33 -239 -44 -94 -51 -126 -35 -165 7 -18 8 -19 15 -3 12 30 22 20 28
-28 6 -56 15 -66 64 -68 35 -1 38 1 36 24 -5 52 -5 121 0 126 3 3 14 1 25 -5
20 -11 34 -41 48 -106 9 -39 10 -40 54 -40 39 0 45 3 42 20 -11 92 -12 112 -2
125 9 13 14 11 35 -13 13 -15 27 -44 31 -65 4 -20 10 -44 15 -52 6 -12 9 -11
16 8 5 13 13 22 18 20 5 -2 20 12 32 31 30 44 30 98 -1 189 -14 39 -27 106
-31 149 -3 43 -14 209 -25 368 -11 160 -27 358 -36 441 l-15 151 31 96 c17 53
36 99 42 103 34 21 118 -144 118 -231 l0 -32 -42 39 c-23 21 -46 38 -51 38
-12 0 -6 -143 18 -445 9 -110 22 -288 29 -395 11 -155 18 -208 37 -260 46
-129 22 -252 -66 -329 -33 -29 -43 -32 -93 -31 -32 1 -79 -1 -107 -5 -39 -5
-56 -2 -80 13 -26 16 -33 17 -58 4 -85 -42 -190 55 -213 196 -6 37 0 55 41
142 l48 100 -12 108 c-10 92 -10 126 5 242 22 171 22 404 1 530 -9 52 -32 151
-50 220 -52 189 -50 175 -21 209 14 17 29 31 34 31 5 0 11 -19 15 -42z m1855
-131 c58 -28 66 -36 71 -67 5 -27 7 -29 8 -10 l1 25 20 -25 c19 -24 80 -141
80 -153 0 -4 -8 -4 -17 -1 -17 5 -17 5 0 -6 22 -14 24 -65 2 -56 -8 3 -15 1
-15 -5 0 -7 10 -9 24 -5 23 6 25 3 32 -39 9 -62 -2 -309 -16 -368 -10 -40 -15
-47 -31 -42 -16 5 -19 1 -19 -24 0 -16 5 -33 10 -36 11 -7 7 -33 -16 -103 -8
-23 -14 -62 -14 -86 l0 -43 58 -16 c84 -23 112 -48 112 -99 l0 -41 24 22 25
23 20 -41 c26 -51 28 -91 4 -91 -15 0 -16 -2 -3 -10 10 -6 11 -10 3 -10 -7 0
-13 -7 -13 -15 0 -8 -9 -15 -20 -15 -13 0 -20 7 -20 20 0 11 5 20 11 20 5 0 7
5 4 10 -12 19 -24 10 -27 -22 -3 -30 -4 -31 -60 -34 -45 -1 -58 1 -58 13 0 8
-5 11 -10 8 -6 -3 -13 1 -17 10 -3 10 -1 20 5 24 6 4 7 12 3 20 -10 16 -32 6
-26 -12 18 -60 17 -62 -35 -62 -38 0 -50 4 -53 17 -3 11 -11 15 -26 11 -12 -3
-21 -9 -21 -14 0 -13 -27 -11 -35 2 -11 16 5 25 16 9 8 -12 9 -11 7 5 -2 12
-12 21 -26 23 -19 3 -22 -1 -22 -28 0 -18 -4 -29 -10 -25 -5 3 -10 17 -10 31
0 14 -4 23 -9 20 -23 -15 -78 92 -86 166 -4 31 0 82 8 123 8 39 15 58 16 43 0
-16 6 -28 12 -28 6 0 8 7 5 16 -3 9 -6 22 -6 30 0 8 -6 14 -14 14 -20 0 -26
44 -33 257 l-6 191 24 4 c18 2 25 10 27 31 3 25 -5 32 -30 28 -10 -1 -10 21
-2 72 4 22 12 37 20 37 8 0 14 5 14 11 0 5 -4 7 -10 4 -6 -3 -10 4 -9 17 0 13
3 17 6 11 8 -20 23 -15 23 7 0 11 -5 20 -11 20 -14 0 -2 81 15 95 6 6 10 18 8
28 -2 10 3 17 12 17 8 0 17 -10 19 -22 3 -16 5 -13 6 11 1 26 -2 32 -14 27
-18 -6 -19 8 -4 55 6 19 12 40 15 47 5 17 11 16 84 -21z m-280 -442 c0 -8 -4
-15 -10 -15 -5 0 -10 7 -10 15 0 8 5 15 10 15 6 0 10 -7 10 -15z m120 1 c0 -8
-4 -18 -10 -21 -5 -3 -10 3 -10 14 0 12 5 21 10 21 6 0 10 -6 10 -14z m-120
-176 c0 -11 -4 -20 -9 -20 -14 0 -23 18 -16 30 10 17 25 11 25 -10z m450 -166
c0 -8 -4 -12 -10 -9 -5 3 -10 10 -10 16 0 5 5 9 10 9 6 0 10 -7 10 -16z m143
-359 c4 -8 2 -17 -3 -20 -6 -4 -10 3 -10 14 0 25 6 27 13 6z m-934 -207 c1 -5
-6 -8 -14 -8 -15 0 -21 31 -8 44 7 6 20 -17 22 -36z"/>
<path d="M3597 5363 c-9 -17 6 -83 19 -83 17 0 18 12 2 28 -8 8 -8 15 2 27 7
8 10 18 6 22 -3 3 -6 1 -6 -5 0 -7 -5 -12 -11 -12 -6 0 -9 7 -5 15 6 15 1 21
-7 8z"/>
<path d="M3660 5326 c0 -39 3 -46 20 -46 11 0 20 5 20 10 0 6 -7 10 -16 10
-13 0 -15 7 -11 30 4 16 2 32 -3 35 -6 4 -10 -13 -10 -39z"/>
<path d="M3153 5353 c19 -5 25 -58 7 -66 -6 -3 -5 -4 2 -3 7 1 14 19 16 39 3
33 1 37 -20 36 -17 -1 -18 -3 -5 -6z"/>
<path d="M3235 5350 c3 -5 8 -10 11 -10 2 0 4 5 4 10 0 6 -5 10 -11 10 -5 0
-7 -4 -4 -10z"/>
<path d="M3285 5346 c-22 -16 -13 -66 11 -66 14 0 14 2 0 16 -23 22 -20 42 7
46 13 2 18 6 11 10 -6 4 -19 1 -29 -6z"/>
<path d="M3212 5303 c2 -17 9 -28 18 -28 9 0 16 11 18 28 3 22 -1 27 -18 27
-17 0 -21 -5 -18 -27z m28 1 c0 -8 -4 -12 -10 -9 -5 3 -10 10 -10 16 0 5 5 9
10 9 6 0 10 -7 10 -16z"/>
<path d="M3340 5290 c0 -5 5 -10 10 -10 6 0 10 5 10 10 0 6 -4 10 -10 10 -5 0
-10 -4 -10 -10z"/>
<path d="M3410 5290 c0 -5 5 -10 10 -10 6 0 10 5 10 10 0 6 -4 10 -10 10 -5 0
-10 -4 -10 -10z"/>
<path d="M3535 5290 c-3 -5 1 -10 9 -10 9 0 16 5 16 10 0 6 -4 10 -9 10 -6 0
-13 -4 -16 -10z"/>
<path d="M3478 5283 c7 -3 16 -2 19 1 4 3 -2 6 -13 5 -11 0 -14 -3 -6 -6z"/>
<path d="M3219 5211 c10 -6 12 -21 8 -50 -3 -23 -1 -39 4 -35 5 3 9 25 9 50 0
35 -3 44 -17 44 -15 0 -15 -2 -4 -9z"/>
<path d="M3370 5211 c0 -5 -9 -11 -21 -14 -30 -8 -23 -61 9 -65 20 -3 22 1 22
42 0 25 -2 46 -5 46 -3 0 -5 -4 -5 -9z m0 -52 c0 -24 -23 -21 -28 4 -2 10 3
17 12 17 10 0 16 -9 16 -21z"/>
<path d="M3936 5211 c-4 -7 -5 -15 -2 -18 9 -9 19 4 14 18 -4 11 -6 11 -12 0z"/>
<path d="M4017 5212 c6 -4 13 -25 16 -47 4 -40 4 -40 5 8 2 39 -1 47 -15 47
-12 0 -14 -3 -6 -8z"/>
<path d="M3142 5172 c2 -28 8 -38 23 -40 l20 -4 -20 15 c-17 13 -18 19 -8 36
10 16 9 20 -3 25 -12 5 -15 -2 -12 -32z"/>
<path d="M3441 5194 c0 -11 3 -14 6 -6 3 7 2 16 -1 19 -3 4 -6 -2 -5 -13z"/>
<path d="M3481 5194 c0 -11 3 -14 6 -6 3 7 2 16 -1 19 -3 4 -6 -2 -5 -13z"/>
<path d="M3611 5196 c-7 -8 -11 -23 -8 -33 4 -15 5 -14 6 4 0 12 7 23 14 26 6
2 9 7 6 11 -3 4 -12 0 -18 -8z"/>
<path d="M3805 5197 c-4 -10 -5 -21 -1 -24 10 -10 18 4 13 24 -4 17 -4 17 -12
0z"/>
<path d="M3628 5157 c-3 -19 -2 -25 4 -19 6 6 8 18 6 28 -3 14 -5 12 -10 -9z"/>
<path d="M3810 5144 c0 -8 5 -12 10 -9 6 3 10 10 10 16 0 5 -4 9 -10 9 -5 0
-10 -7 -10 -16z"/>
<path d="M4131 5144 c0 -11 3 -14 6 -6 3 7 2 16 -1 19 -3 4 -6 -2 -5 -13z"/>
<path d="M3410 5140 c-13 -8 -12 -10 3 -10 9 0 17 5 17 10 0 12 -1 12 -20 0z"/>
<path d="M3140 5032 c0 -23 4 -42 8 -42 9 0 8 67 -1 77 -4 3 -7 -12 -7 -35z"/>
<path d="M3300 5051 c-15 -30 -32 -77 -24 -68 9 9 44 87 39 87 -2 0 -9 -9 -15
-19z"/>
<path d="M3401 5048 c1 -16 3 -18 6 -6 2 9 12 19 21 21 12 3 10 5 -5 6 -18 1
-23 -4 -22 -21z"/>
<path d="M3532 5051 c-10 -6 -7 -10 12 -13 16 -3 25 -1 23 5 -5 15 -20 18 -35
8z"/>
<path d="M3924 5048 c-3 -4 4 -8 15 -8 12 0 21 4 21 8 0 5 -7 9 -15 9 -9 0
-18 -4 -21 -9z"/>
<path d="M3210 5035 c-17 -21 -5 -45 22 -44 17 1 19 2 5 6 -9 2 -15 9 -12 14
4 5 1 9 -5 9 -6 0 -8 5 -5 10 10 15 23 12 28 -7 4 -14 5 -12 6 5 1 25 -20 30
-39 7z"/>
<path d="M3860 5020 c0 -16 2 -30 4 -30 2 0 11 -3 20 -6 9 -3 16 -1 16 5 0 6
-7 11 -15 11 -20 0 -16 32 5 42 11 5 9 7 -7 7 -19 1 -23 -4 -23 -29z"/>
<path d="M3172 5018 c1 -16 6 -28 10 -28 11 0 10 22 -2 40 -8 11 -9 9 -8 -12z"/>
<path d="M3930 5001 c0 -12 6 -21 15 -21 8 0 15 3 15 6 0 3 -7 12 -15 20 -13
14 -15 13 -15 -5z"/>
<path d="M3460 4989 c0 -5 11 -9 25 -9 14 0 25 2 25 4 0 2 -11 6 -25 8 -14 3
-25 1 -25 -3z"/>
<path d="M3535 4990 c-3 -5 3 -10 15 -10 12 0 18 5 15 10 -3 6 -10 10 -15 10
-5 0 -12 -4 -15 -10z"/>
<path d="M3605 4990 c-3 -5 1 -10 10 -10 9 0 13 5 10 10 -3 6 -8 10 -10 10 -2
0 -7 -4 -10 -10z"/>
<path d="M3995 4990 c-3 -5 -1 -10 4 -10 6 0 11 5 11 10 0 6 -2 10 -4 10 -3 0
-8 -4 -11 -10z"/>
<path d="M3408 4983 c6 -2 18 -2 25 0 6 3 1 5 -13 5 -14 0 -19 -2 -12 -5z"/>
<path d="M3170 4916 c0 -8 -7 -17 -16 -20 -21 -8 -14 -50 9 -54 14 -3 17 4 17
42 0 25 -2 46 -5 46 -3 0 -5 -6 -5 -14z m0 -46 c0 -11 -4 -20 -10 -20 -5 0
-10 9 -10 20 0 11 5 20 10 20 6 0 10 -9 10 -20z"/>
<path d="M3400 4911 c-32 -17 -36 -17 -46 -2 -21 28 -12 -121 9 -153 19 -29
62 -50 84 -42 7 3 17 -4 23 -14 6 -11 16 -20 23 -19 9 0 9 2 0 6 -18 7 -16 33
1 33 8 0 17 -8 19 -17 3 -13 5 -10 6 7 1 14 8 36 16 50 8 14 14 35 15 46 0 12
6 27 14 34 22 18 8 39 -45 65 -58 30 -74 31 -119 6z m160 -62 c0 -6 -4 -7 -10
-4 -5 3 -10 11 -10 16 0 6 5 7 10 4 6 -3 10 -11 10 -16z"/>
<path d="M3596 4911 c-4 -5 3 -7 14 -4 23 6 26 13 6 13 -8 0 -17 -4 -20 -9z"/>
<path d="M3671 4876 c-1 -30 3 -46 8 -40 5 5 6 27 1 49 l-8 40 -1 -49z"/>
<path d="M3927 4904 c-2 -2 -2 -17 1 -34 3 -23 9 -30 26 -30 19 1 19 2 4 11
-10 5 -18 16 -18 24 0 7 8 15 18 17 14 3 13 5 -5 10 -12 3 -24 4 -26 2z"/>
<path d="M3998 4904 c-3 -2 -3 -17 0 -34 3 -23 9 -30 26 -29 17 1 17 2 4 6
-20 5 -24 39 -6 45 8 3 6 6 -4 10 -9 4 -18 5 -20 2z"/>
<path d="M3210 4885 c0 -8 7 -15 15 -15 8 0 15 -5 15 -11 0 -6 -9 -9 -20 -6
-11 3 -20 1 -20 -4 0 -11 47 -12 54 -1 3 5 2 18 -1 30 -6 25 -43 31 -43 7z"/>
<path d="M3274 4885 c-9 -22 3 -45 23 -45 17 1 17 1 1 11 -24 14 -22 28 5 39
l22 9 -23 0 c-12 1 -25 -6 -28 -14z"/>
<path d="M3860 4870 c0 -25 4 -30 23 -29 18 1 19 2 4 6 -14 4 -18 12 -14 29 2
13 0 24 -4 24 -5 0 -9 -13 -9 -30z"/>
<path d="M3600 4882 c0 -5 7 -9 15 -9 8 0 15 4 15 9 0 4 -7 8 -15 8 -8 0 -15
-4 -15 -8z"/>
<path d="M3598 4843 c6 -2 18 -2 25 0 6 3 1 5 -13 5 -14 0 -19 -2 -12 -5z"/>
<path d="M3220 4732 c0 -29 4 -52 9 -52 8 0 3 90 -5 99 -2 2 -4 -19 -4 -47z"/>
<path d="M3572 4760 c0 -14 2 -19 5 -12 2 6 2 18 0 25 -3 6 -5 1 -5 -13z"/>
<path d="M3660 4770 c-10 -6 -11 -10 -2 -10 7 0 12 -15 12 -40 0 -22 3 -40 8
-40 4 0 6 19 4 41 -3 31 -1 40 8 34 8 -5 11 -3 8 5 -6 18 -20 22 -38 10z"/>
<path d="M3940 4765 c6 -8 9 -24 5 -37 -5 -20 -4 -21 5 -5 12 19 5 57 -12 57
-7 0 -6 -5 2 -15z"/>
<path d="M4000 4770 c0 -5 5 -10 10 -10 6 0 10 5 10 10 0 6 -4 10 -10 10 -5 0
-10 -4 -10 -10z"/>
<path d="M3281 4756 c-18 -21 -10 -70 12 -74 12 -3 17 3 17 22 0 14 -4 26 -9
26 -5 0 -7 -9 -4 -20 3 -11 0 -20 -6 -20 -13 0 -14 29 -2 49 5 7 14 10 20 7 6
-4 11 0 11 8 0 20 -24 21 -39 2z"/>
<path d="M3340 4694 c0 -8 5 -12 10 -9 6 3 10 10 10 16 0 5 -4 9 -10 9 -5 0
-10 -7 -10 -16z"/>
<path d="M3410 4689 c0 -5 5 -7 10 -4 6 3 10 8 10 11 0 2 -4 4 -10 4 -5 0 -10
-5 -10 -11z"/>
<path d="M3925 4690 c-3 -5 1 -10 9 -10 8 0 18 5 21 10 3 6 -1 10 -9 10 -8 0
-18 -4 -21 -10z"/>
<path d="M3600 4610 c-16 -31 -5 -70 21 -70 18 0 20 5 17 42 -3 47 -21 60 -38
28z m30 -30 c0 -16 -4 -30 -10 -30 -5 0 -10 14 -10 30 0 17 5 30 10 30 6 0 10
-13 10 -30z"/>
<path d="M3400 4580 c0 -35 3 -40 23 -40 20 1 20 2 5 11 -10 5 -18 14 -18 19
0 5 8 11 18 13 15 4 15 5 -2 6 -12 1 -16 6 -12 16 3 8 1 15 -4 15 -6 0 -10
-18 -10 -40z"/>
<path d="M3660 4615 c0 -3 12 -17 26 -30 l27 -25 -24 -9 c-23 -9 -23 -10 -3
-10 34 -1 38 28 9 55 -26 24 -35 29 -35 19z"/>
<path d="M3147 4593 c-4 -3 -7 -17 -7 -30 0 -16 6 -23 19 -23 25 0 34 14 26
40 -6 20 -25 26 -38 13z m23 -23 c0 -11 -4 -20 -10 -20 -5 0 -10 9 -10 20 0
11 5 20 10 20 6 0 10 -9 10 -20z"/>
<path d="M3200 4589 c0 -5 5 -7 10 -4 6 3 10 8 10 11 0 2 -4 4 -10 4 -5 0 -10
-5 -10 -11z"/>
<path d="M3236 4585 c4 -8 2 -15 -4 -15 -5 0 -12 -11 -14 -25 -7 -36 6 -31 25
10 21 43 21 45 2 45 -9 0 -12 -6 -9 -15z"/>
<path d="M3340 4588 c0 -9 -3 -23 -6 -32 -5 -12 0 -16 20 -16 14 0 26 5 26 10
0 6 -7 10 -16 10 -8 0 -13 4 -10 8 2 4 1 14 -5 22 -7 13 -9 12 -9 -2z"/>
<path d="M3365 4590 c3 -5 8 -10 11 -10 2 0 4 5 4 10 0 6 -5 10 -11 10 -5 0
-7 -4 -4 -10z"/>
<path d="M3460 4586 c0 -29 13 -46 34 -45 21 0 21 0 -1 9 -27 11 -30 37 -5 43
13 4 11 5 -5 6 -14 1 -23 -5 -23 -13z"/>
<path d="M3278 4543 c6 -2 18 -2 25 0 6 3 1 5 -13 5 -14 0 -19 -2 -12 -5z"/>
<path d="M3600 4436 c0 -38 15 -55 33 -37 8 8 6 11 -6 11 -19 0 -22 11 -8 26
6 5 4 14 -5 22 -12 11 -14 7 -14 -22z"/>
<path d="M3477 4453 c-11 -10 -8 -51 4 -58 6 -4 13 -4 17 0 4 4 1 10 -5 12
-15 5 -17 33 -3 33 6 0 10 5 10 10 0 11 -13 13 -23 3z"/>
<path d="M3672 4451 c-19 -12 -11 -55 11 -59 9 -2 17 1 17 7 0 6 -7 11 -15 11
-8 0 -15 7 -15 15 0 8 7 15 15 15 8 0 15 5 15 10 0 12 -10 13 -28 1z"/>
<path d="M3531 4429 c-1 -27 23 -47 34 -29 4 6 2 10 -3 10 -5 0 -14 10 -20 23
-11 22 -11 22 -11 -4z"/>
<path d="M3555 4440 c3 -5 10 -10 16 -10 5 0 9 5 9 10 0 6 -7 10 -16 10 -8 0
-12 -4 -9 -10z"/>
<path d="M3537 4318 c-6 -18 3 -77 14 -84 5 -3 6 9 3 26 -5 22 -3 30 7 30 11
0 11 2 -1 10 -13 9 -13 11 0 20 13 8 13 10 -1 10 -9 0 -19 -6 -22 -12z"/>
<path d="M2970 4276 c0 -29 22 -39 46 -22 24 18 11 46 -21 46 -20 0 -25 -5
-25 -24z"/>
<path d="M3597 4293 c-4 -3 -7 -14 -7 -24 0 -22 36 -44 45 -29 3 5 -1 10 -9
10 -9 0 -16 9 -16 20 0 22 15 27 23 8 3 -8 6 -6 6 5 1 17 -28 24 -42 10z"/>
<path d="M3667 4293 c-13 -12 -7 -51 8 -57 8 -3 15 -1 15 4 0 6 -4 10 -10 10
-5 0 -10 7 -10 15 0 8 5 15 10 15 6 0 10 5 10 10 0 11 -13 13 -23 3z"/>
<path d="M3664 4146 c-11 -29 1 -71 21 -74 18 -2 18 -2 3 8 -12 8 -15 19 -11
45 6 35 -3 48 -13 21z"/>
<path d="M3692 4130 c0 -19 2 -27 5 -17 2 9 2 25 0 35 -3 9 -5 1 -5 -18z"/>
<path d="M3275 4080 c-3 -5 1 -10 10 -10 9 0 13 5 10 10 -3 6 -8 10 -10 10 -2
0 -7 -4 -10 -10z"/>
<path d="M3608 4073 c7 -3 16 -2 19 1 4 3 -2 6 -13 5 -11 0 -14 -3 -6 -6z"/>
<path d="M3727 3965 c-9 -23 11 -28 23 -5 8 16 8 20 -4 20 -7 0 -16 -7 -19
-15z"/>
<path d="M3470 3955 c-16 -20 -6 -45 19 -45 26 0 31 10 20 38 -10 26 -22 28
-39 7z m28 -24 c3 -8 -1 -12 -9 -9 -7 2 -15 10 -17 17 -3 8 1 12 9 9 7 -2 15
-10 17 -17z"/>
<path d="M3528 3940 c2 -16 8 -30 13 -30 5 0 9 14 9 30 0 18 -5 30 -13 30 -9
0 -12 -10 -9 -30z"/>
<path d="M3568 3940 c-3 -16 -1 -30 3 -30 4 0 9 14 11 30 3 17 1 30 -3 30 -4
0 -9 -13 -11 -30z"/>
<path d="M3600 3940 c0 -23 4 -30 20 -30 16 0 20 7 20 30 0 23 -4 30 -20 30
-16 0 -20 -7 -20 -30z m30 -10 c0 -5 -4 -10 -10 -10 -5 0 -10 5 -10 10 0 6 5
10 10 10 6 0 10 -4 10 -10z"/>
<path d="M3660 3940 c0 -23 4 -30 20 -30 16 0 20 7 20 30 0 23 -4 30 -20 30
-16 0 -20 -7 -20 -30z m30 0 c0 -11 -4 -20 -10 -20 -5 0 -10 9 -10 20 0 11 5
20 10 20 6 0 10 -9 10 -20z"/>
<path d="M3730 3920 c0 -5 7 -10 15 -10 8 0 15 5 15 10 0 6 -7 10 -15 10 -8 0
-15 -4 -15 -10z"/>
<path d="M3725 3830 c-3 -5 -1 -10 4 -10 6 0 11 5 11 10 0 6 -2 10 -4 10 -3 0
-8 -4 -11 -10z"/>
<path d="M3338 3818 c-2 -6 -2 -24 0 -40 3 -21 9 -28 26 -27 17 1 17 2 4 6
-22 6 -24 40 -3 45 13 2 12 5 -4 15 -14 9 -21 9 -23 1z"/>
<path d="M3538 3814 c-3 -2 -3 -17 0 -34 3 -20 10 -30 21 -29 10 0 11 2 4 6
-16 6 -17 40 -1 45 8 3 6 6 -4 10 -9 4 -18 5 -20 2z"/>
<path d="M3600 3785 c0 -27 4 -35 18 -34 10 0 12 3 5 6 -16 6 -17 43 -2 43 5
0 7 5 4 10 -13 21 -25 9 -25 -25z"/>
<path d="M3144 3780 c1 -16 7 -30 13 -30 9 0 10 7 3 24 -5 13 -6 27 -3 30 4 3
2 6 -4 6 -6 0 -10 -13 -9 -30z"/>
<path d="M3170 3789 c0 -11 4 -18 10 -14 5 3 7 12 3 20 -7 21 -13 19 -13 -6z"/>
<path d="M3204 3795 c-9 -23 3 -45 26 -45 16 0 20 7 20 30 0 23 -4 30 -20 30
-11 0 -23 -7 -26 -15z m33 -1 c-3 -3 -12 -4 -19 -1 -8 3 -5 6 6 6 11 1 17 -2
13 -5z m-2 -24 c-3 -5 -10 -10 -16 -10 -5 0 -9 5 -9 10 0 6 7 10 16 10 8 0 12
-4 9 -10z"/>
<path d="M3276 3798 c-13 -41 -15 -68 -6 -68 5 0 9 3 9 8 -1 4 -1 20 0 36 1
23 5 27 21 23 11 -3 20 -1 20 4 0 14 -40 11 -44 -3z"/>
<path d="M3406 3783 c9 -39 14 -41 14 -9 0 21 4 27 15 22 8 -3 15 -1 15 4 0 6
-11 10 -25 10 -23 0 -25 -3 -19 -27z"/>
<path d="M3467 3803 c-4 -3 -7 -17 -7 -30 0 -18 5 -23 25 -23 17 0 25 5 24 18
0 10 -3 12 -6 5 -6 -15 -33 -17 -33 -3 0 6 6 10 13 10 8 0 7 4 -3 11 -12 9
-11 10 8 6 12 -3 22 -1 22 4 0 10 -33 12 -43 2z"/>
<path d="M3662 3783 c3 -26 38 -48 38 -24 0 6 -5 10 -12 9 -20 -5 -21 30 -1
35 14 4 13 5 -5 6 -20 1 -23 -3 -20 -26z"/>
<path d="M3720 3779 c0 -27 2 -27 52 -26 31 1 53 7 56 15 2 6 -4 12 -15 12
-15 0 -16 -2 -3 -10 12 -8 10 -10 -10 -10 -15 0 -31 5 -38 12 -9 9 -12 9 -12
-2 0 -13 -1 -13 -9 0 -11 16 -4 33 10 25 5 -4 9 -2 9 4 0 5 -9 9 -20 8 -15 -1
-20 -8 -20 -28z"/>
<path d="M3790 3800 c0 -5 9 -10 20 -10 11 0 20 5 20 10 0 6 -9 10 -20 10 -11
0 -20 -4 -20 -10z"/>
<path d="M3299 3773 c0 -5 -2 -16 -4 -25 -2 -10 1 -18 6 -18 5 0 9 11 9 25 0
22 -9 37 -11 18z"/>
<path d="M3595 3634 c11 -49 14 -56 26 -48 8 4 7 9 -2 15 -12 7 -12 12 0 31 7
13 10 20 6 16 -5 -4 -14 -3 -22 4 -12 10 -13 7 -8 -18z"/>
<path d="M3144 3611 c-1 -23 2 -38 7 -35 5 3 9 16 9 30 0 15 4 23 10 19 6 -4
8 -11 5 -16 -4 -5 -1 -9 5 -9 20 0 6 45 -15 48 -17 2 -20 -3 -21 -37z"/>
<path d="M3210 3618 c0 -15 4 -28 9 -28 5 0 7 9 4 20 -4 14 0 20 11 20 9 0 16
4 16 9 0 6 -9 9 -20 8 -15 -1 -20 -8 -20 -29z"/>
<path d="M3274 3636 c-3 -8 -4 -23 -1 -33 3 -12 5 -8 6 10 0 15 6 27 12 27 7
0 9 -10 6 -25 -2 -14 0 -24 5 -23 5 2 9 7 9 11 -1 4 -1 16 -1 27 0 23 -28 27
-36 6z"/>
<path d="M3330 3621 c0 -20 6 -30 20 -34 11 -3 20 -1 20 4 0 5 -7 9 -15 9 -8
0 -15 9 -15 20 0 11 5 20 10 20 6 0 10 -8 10 -17 0 -15 2 -16 10 -3 15 23 12
30 -15 30 -21 0 -25 -5 -25 -29z"/>
<path d="M3460 3620 c0 -39 15 -39 16 0 1 17 -3 30 -7 30 -5 0 -9 -13 -9 -30z"/>
<path d="M3494 3620 c0 -16 4 -30 8 -30 5 0 8 14 8 30 0 17 -4 30 -9 30 -5 0
-8 -13 -7 -30z"/>
<path d="M3533 3643 c-24 -9 -14 -33 13 -33 18 0 25 5 22 17 -3 18 -16 24 -35
16z m22 -13 c3 -5 -1 -10 -10 -10 -9 0 -13 5 -10 10 3 6 8 10 10 10 2 0 7 -4
10 -10z"/>
<path d="M3656 3624 c-8 -30 -8 -29 22 -38 13 -5 22 -3 22 3 0 6 -7 11 -15 11
-8 0 -15 7 -15 15 0 18 16 20 23 3 3 -7 6 -3 6 10 1 33 -35 30 -43 -4z"/>
<path d="M3720 3621 c0 -17 5 -33 11 -36 13 -9 27 4 14 13 -6 4 -11 15 -13 26
-3 14 1 17 12 13 9 -4 16 -2 16 3 0 6 -9 10 -20 10 -15 0 -20 -7 -20 -29z"/>
<path d="M3420 3621 c0 -6 6 -12 13 -12 6 -1 -1 -5 -18 -9 l-30 -8 33 -1 c35
-1 41 9 17 29 -10 9 -15 9 -15 1z"/>
<path d="M3538 3593 c6 -2 18 -2 25 0 6 3 1 5 -13 5 -14 0 -19 -2 -12 -5z"/>
<path d="M3795 3590 c-3 -5 -1 -10 4 -10 6 0 11 5 11 10 0 6 -2 10 -4 10 -3 0
-8 -4 -11 -10z"/>
<path d="M3330 3569 c0 -5 9 -9 20 -9 11 0 20 2 20 4 0 2 -9 6 -20 9 -11 3
-20 1 -20 -4z"/>
<path d="M3795 3470 c0 -41 3 -50 18 -50 9 0 17 5 17 10 0 6 -5 10 -10 10 -6
0 -8 10 -5 23 3 12 0 30 -7 40 -11 15 -13 11 -13 -33z"/>
<path d="M3170 3496 c0 -8 -7 -17 -16 -20 -21 -8 -14 -50 9 -54 14 -3 17 4 17
42 0 25 -2 46 -5 46 -3 0 -5 -6 -5 -14z m0 -41 c0 -8 -4 -15 -10 -15 -5 0 -10
7 -10 15 0 8 5 15 10 15 6 0 10 -7 10 -15z"/>
<path d="M3550 3465 c-11 -26 -19 -50 -16 -52 2 -3 14 17 25 43 12 26 19 49
16 52 -2 3 -14 -17 -25 -43z"/>
<path d="M3218 3488 c-7 -19 4 -68 14 -68 5 0 6 10 3 21 -4 12 -3 24 3 28 6 4
5 11 -3 18 -10 9 -15 9 -17 1z"/>
<path d="M3404 3460 c1 -26 6 -35 19 -36 11 -1 12 0 3 3 -8 2 -17 19 -19 36
-4 31 -4 31 -3 -3z"/>
<path d="M3599 3496 c-10 -10 5 -69 19 -74 6 -2 12 1 12 7 0 6 -4 11 -9 11 -6
0 -11 14 -13 31 -2 17 -6 28 -9 25z"/>
<path d="M3270 3471 c0 -30 11 -51 26 -51 8 0 14 5 14 10 0 6 -4 10 -10 10
-14 0 -12 37 3 43 6 3 2 6 -10 6 -16 1 -23 -5 -23 -18z"/>
<path d="M3449 3473 c5 -10 12 -26 15 -35 3 -10 13 -17 23 -17 17 1 17 2 0 6
-13 3 -17 11 -14 24 3 12 -2 23 -14 30 -17 9 -19 8 -10 -8z"/>
<path d="M3688 3465 c2 -15 0 -25 -7 -25 -6 0 -11 9 -11 20 0 11 -5 20 -11 20
-6 0 -8 -9 -4 -22 10 -31 21 -42 34 -34 13 8 15 66 2 66 -4 0 -6 -11 -3 -25z"/>
<path d="M3727 3484 c-4 -4 -7 -17 -7 -30 0 -24 28 -40 44 -24 7 7 3 10 -12
10 -22 0 -30 24 -12 35 6 3 10 -1 10 -9 0 -9 5 -16 11 -16 6 0 9 8 7 17 -3 19
-29 29 -41 17z"/>
<path d="M3334 3465 c-9 -23 4 -47 23 -43 19 3 32 58 15 58 -5 0 -9 -6 -8 -12
0 -7 -3 -13 -9 -13 -5 0 -9 6 -9 13 2 17 -5 15 -12 -3z"/>
<path d="M3506 3471 c-4 -7 -5 -15 -2 -18 9 -9 19 4 14 18 -4 11 -6 11 -12 0z"/>
<path d="M3857 3473 c-2 -5 -5 -23 -5 -41 -1 -30 2 -33 26 -30 27 3 34 19 11
27 -7 2 -9 -1 -5 -8 4 -6 1 -11 -8 -11 -23 0 -20 17 4 25 28 9 25 24 -2 18
-16 -4 -20 -2 -13 5 6 5 19 12 30 15 15 4 14 5 -7 6 -15 0 -29 -2 -31 -6z"/>
<path d="M3400 3353 c0 -5 11 -8 25 -8 14 0 25 3 25 8 0 4 -11 7 -25 7 -14 0
-25 -3 -25 -7z"/>
<path d="M3486 3353 c5 -5 12 -12 16 -18 4 -6 8 -2 8 8 0 9 -7 17 -17 17 -9 0
-12 -3 -7 -7z"/>
<path d="M3668 3315 c2 -25 7 -45 11 -45 4 0 5 16 3 36 -3 24 0 39 9 45 11 7
9 9 -6 9 -18 0 -20 -5 -17 -45z"/>
<path d="M3727 3353 c-4 -3 -7 -24 -7 -45 0 -33 3 -38 23 -37 16 1 18 2 5 6
-13 3 -18 15 -18 40 0 32 2 35 25 31 13 -3 22 -1 19 3 -6 11 -38 12 -47 2z"/>
<path d="M3790 3321 c0 -30 11 -51 27 -51 12 0 12 2 -1 16 -20 20 -20 34 0 34
8 0 12 5 9 10 -11 17 -35 11 -35 -9z"/>
<path d="M3145 3300 c0 -16 5 -30 12 -30 6 0 9 9 6 21 -4 12 0 25 8 30 11 7 9
9 -6 9 -16 0 -20 -7 -20 -30z"/>
<path d="M3200 3300 c0 -25 4 -30 25 -30 21 0 25 5 25 30 0 25 -4 30 -25 30
-21 0 -25 -5 -25 -30z m40 0 c0 -11 -4 -20 -10 -20 -5 0 -10 9 -10 20 0 11 5
20 10 20 6 0 10 -9 10 -20z"/>
<path d="M3324 3315 c-9 -23 3 -45 26 -45 11 0 20 5 20 10 0 6 -7 10 -16 8
-10 -2 -18 5 -19 15 -4 19 21 24 28 5 3 -8 6 -6 6 5 1 21 -37 23 -45 2z"/>
<path d="M3850 3300 c0 -16 4 -30 9 -30 4 0 6 11 3 25 -3 19 0 25 13 25 13 0
16 -6 13 -25 -3 -14 -1 -25 3 -25 5 0 9 14 9 30 0 25 -4 30 -25 30 -21 0 -25
-5 -25 -30z"/>
<path d="M3270 3295 c0 -17 5 -25 18 -24 10 0 12 3 5 6 -7 2 -13 11 -13 18 0
7 6 16 13 18 7 3 5 6 -5 6 -13 1 -18 -7 -18 -24z"/>
<path d="M3470 3309 c0 -5 4 -8 9 -4 19 11 23 -18 5 -33 -18 -14 -18 -14 -1
-8 10 3 21 6 23 6 2 0 4 11 4 25 0 18 -5 25 -20 25 -11 0 -20 -5 -20 -11z"/>
<path d="M3540 3264 c0 -8 5 -12 10 -9 6 3 10 10 10 16 0 5 -4 9 -10 9 -5 0
-10 -7 -10 -16z"/>
<path d="M3605 3270 c4 -6 11 -8 16 -5 14 9 11 15 -7 15 -8 0 -12 -5 -9 -10z"/>
<path d="M3330 3160 c0 -42 21 -63 42 -42 8 8 5 9 -11 5 -15 -4 -21 -1 -21 11
0 9 5 16 11 16 8 0 8 5 -1 15 -9 10 -9 15 -1 15 6 0 11 5 11 10 0 6 -7 10 -15
10 -11 0 -15 -11 -15 -40z"/>
<path d="M3410 3193 c13 -6 13 -49 0 -74 -7 -13 -7 -19 -1 -19 24 0 27 91 3
96 -7 1 -8 0 -2 -3z"/>
<path d="M3662 3153 c2 -29 8 -39 23 -41 19 -4 20 -3 1 11 -14 10 -17 21 -12
40 4 17 2 27 -4 27 -7 0 -10 -15 -8 -37z"/>
<path d="M3726 3160 c4 -19 8 -38 11 -43 8 -13 23 4 23 26 0 16 -3 18 -9 8 -6
-10 -11 -6 -20 15 -11 28 -11 28 -5 -6z"/>
<path d="M3147 3173 c-4 -3 -7 -17 -7 -30 0 -18 5 -23 23 -22 17 1 18 2 4 6
-20 5 -18 40 2 35 7 -1 10 2 6 8 -7 12 -19 13 -28 3z"/>
<path d="M3236 3166 c4 -11 0 -16 -11 -16 -9 0 -13 5 -10 10 3 6 1 10 -4 10
-6 0 -11 -13 -11 -30 0 -25 4 -30 25 -30 21 0 25 5 25 29 0 17 -4 33 -10 36
-6 3 -7 -1 -4 -9z m4 -36 c0 -5 -7 -10 -15 -10 -8 0 -15 5 -15 10 0 6 7 10 15
10 8 0 15 -4 15 -10z"/>
<path d="M3270 3145 c0 -19 4 -35 10 -35 5 0 7 13 4 30 -5 24 -3 30 11 30 11
0 15 -5 11 -15 -3 -8 -1 -15 4 -15 6 0 10 9 10 20 0 15 -7 20 -25 20 -22 0
-25 -4 -25 -35z"/>
<path d="M3530 3144 c0 -42 9 -42 12 -1 3 34 18 36 18 3 0 -14 5 -28 11 -31 7
-5 9 5 7 26 -2 26 -8 35 -25 37 -20 3 -23 -1 -23 -34z"/>
<path d="M3620 3166 c0 -9 -5 -16 -11 -16 -5 0 -7 5 -4 10 3 6 1 10 -4 10 -6
0 -11 -11 -11 -25 0 -14 5 -25 11 -25 5 0 7 5 4 10 -3 6 1 10 9 10 10 0 13 -6
10 -15 -4 -8 -1 -15 5 -15 14 0 15 57 1 65 -5 3 -10 -1 -10 -9z"/>
<path d="M3791 3161 c-13 -22 9 -57 30 -48 10 4 9 6 -3 6 -10 1 -18 6 -18 12
0 6 7 9 15 6 20 -8 29 11 15 28 -17 20 -27 19 -39 -4z m34 -1 c3 -5 -1 -10
-10 -10 -9 0 -13 5 -10 10 3 6 8 10 10 10 2 0 7 -4 10 -10z"/>
<path d="M3857 3173 c-11 -11 -8 -63 4 -63 6 0 8 8 4 19 -4 13 0 20 16 24 11
3 18 10 14 16 -7 12 -28 14 -38 4z m30 -9 c-3 -3 -12 -4 -19 -1 -8 3 -5 6 6 6
11 1 17 -2 13 -5z"/>
<path d="M3470 3110 c-8 -5 -12 -12 -9 -15 4 -3 12 1 19 10 14 17 11 19 -10 5z"/>
<path d="M3920 3110 c0 -5 5 -10 10 -10 6 0 10 5 10 10 0 6 -4 10 -10 10 -5 0
-10 -4 -10 -10z"/>
<path d="M3557 3023 c5 -12 2 -15 -10 -10 -9 3 -17 2 -17 -2 0 -5 7 -11 15
-15 22 -8 18 -25 -7 -36 -23 -10 -23 -10 2 -7 22 2 25 7 28 45 2 24 -1 42 -7
42 -6 0 -7 -8 -4 -17z"/>
<path d="M3206 3021 c-4 -5 -3 -16 0 -25 5 -13 8 -13 20 -1 19 18 18 26 -3 18
-11 -4 -14 -3 -9 5 4 7 5 12 2 12 -3 0 -7 -4 -10 -9z"/>
<path d="M3400 2989 c0 -32 3 -39 20 -39 11 0 20 5 20 11 0 5 -5 7 -10 4 -19
-12 -23 25 -5 39 17 12 17 13 -4 19 -19 5 -21 1 -21 -34z"/>
<path d="M3725 3019 c-9 -14 0 -22 18 -17 13 2 13 5 2 15 -10 9 -16 9 -20 2z"/>
<path d="M3920 2990 c0 -29 4 -40 15 -40 8 0 15 5 15 10 0 6 -4 10 -10 10 -5
0 -10 9 -10 20 0 11 5 20 11 20 5 0 7 5 4 10 -13 22 -25 8 -25 -30z"/>
<path d="M3340 2984 c0 -33 12 -45 25 -24 3 6 1 10 -4 10 -18 0 -12 28 7 32
14 3 13 5 -5 10 -21 5 -23 3 -23 -28z"/>
<path d="M3662 2988 c2 -22 9 -34 21 -36 9 -2 17 1 17 7 0 6 -7 11 -15 11 -8
0 -15 7 -15 15 0 8 7 15 16 15 8 0 12 5 9 10 -3 6 -13 10 -21 10 -11 0 -14 -9
-12 -32z"/>
<path d="M3791 3003 c0 -11 3 -13 6 -5 2 6 9 12 14 12 6 0 8 -4 4 -9 -3 -5 -1
-12 4 -16 6 -3 7 -13 4 -23 -4 -13 -3 -14 6 -6 8 8 9 18 2 37 -12 30 -41 37
-40 10z"/>
<path d="M3270 2985 c0 -29 25 -44 43 -25 9 10 7 11 -10 5 -13 -3 -23 -2 -23
3 0 5 9 12 21 15 25 7 16 27 -12 27 -14 0 -19 -7 -19 -25z"/>
<path d="M3594 2995 c-13 -34 24 -63 42 -33 4 6 3 8 -2 5 -6 -3 -16 -2 -24 4
-12 7 -10 9 8 9 13 0 22 6 22 15 0 8 -9 15 -20 15 -11 0 -23 -7 -26 -15z m33
-1 c-3 -3 -12 -4 -19 -1 -8 3 -5 6 6 6 11 1 17 -2 13 -5z"/>
<path d="M3984 2995 c-4 -8 -4 -22 0 -30 6 -17 26 -21 26 -5 0 6 -5 10 -12 10
-9 0 -9 3 0 12 7 7 12 16 12 20 0 14 -20 9 -26 -7z"/>
<path d="M3153 2986 c18 -14 18 -15 0 -25 -17 -10 -17 -10 0 -11 23 0 34 29
16 41 -23 14 -36 10 -16 -5z"/>
<path d="M3215 2960 c3 -5 10 -10 16 -10 5 0 9 5 9 10 0 6 -7 10 -16 10 -8 0
-12 -4 -9 -10z"/>
<path d="M3470 2951 c0 -25 6 -27 13 -6 4 8 2 17 -3 20 -6 4 -10 -3 -10 -14z"/>
<path d="M3730 2960 c0 -5 7 -10 16 -10 8 0 12 5 9 10 -3 6 -10 10 -16 10 -5
0 -9 -4 -9 -10z"/>
<path d="M3790 2960 c0 -5 5 -10 11 -10 5 0 7 5 4 10 -3 6 -8 10 -11 10 -2 0
-4 -4 -4 -10z"/>
<path d="M3860 2950 c0 -5 4 -10 9 -10 6 0 13 5 16 10 3 6 -1 10 -9 10 -9 0
-16 -4 -16 -10z"/>
<path d="M3278 2873 c6 -2 18 -2 25 0 6 3 1 5 -13 5 -14 0 -19 -2 -12 -5z"/>
<path d="M3337 2873 c-14 -14 -7 -81 9 -87 26 -10 34 2 34 50 0 36 -3 44 -18
44 -10 0 -22 -3 -25 -7z m30 -43 c0 -26 -4 -39 -11 -37 -13 4 -20 42 -12 63
11 28 23 13 23 -26z"/>
<path d="M3516 2840 c-22 -56 -19 -65 5 -11 11 24 18 46 15 48 -2 2 -11 -14
-20 -37z"/>
<path d="M3852 2838 c2 -36 7 -44 26 -46 20 -3 22 1 22 42 0 43 -2 46 -26 46
-23 0 -25 -3 -22 -42z m38 -3 c0 -24 -5 -35 -15 -35 -10 0 -15 11 -15 35 0 24
5 35 15 35 10 0 15 -11 15 -35z"/>
<path d="M3932 2830 c0 -48 1 -52 10 -27 6 18 6 36 0 55 -9 24 -10 20 -10 -28z"/>
<path d="M3790 2830 c0 -35 3 -40 23 -39 18 1 19 2 4 6 -16 4 -18 11 -12 39 3
21 2 34 -5 34 -5 0 -10 -18 -10 -40z"/>
<path d="M3143 2830 c1 -16 7 -30 14 -30 6 0 9 9 6 21 -4 12 0 25 8 30 11 7 9
9 -8 9 -18 0 -22 -5 -20 -30z"/>
<path d="M3202 2828 c2 -25 8 -33 23 -33 15 0 21 8 23 33 3 29 1 32 -23 32
-24 0 -26 -3 -23 -32z m35 2 c1 -11 -4 -20 -13 -20 -14 0 -19 21 -7 33 11 12
19 7 20 -13z"/>
<path d="M3280 2851 c0 -5 5 -13 10 -16 6 -3 10 -2 10 4 0 5 -4 13 -10 16 -5
3 -10 2 -10 -4z"/>
<path d="M3591 2820 c2 -30 3 -31 6 -7 5 34 23 36 23 2 0 -14 5 -25 10 -25 6
0 10 15 10 33 0 28 -3 32 -25 32 -22 0 -25 -4 -24 -35z"/>
<path d="M3660 2825 c0 -34 20 -49 35 -25 3 6 -1 10 -10 10 -20 0 -16 32 5 42
11 5 9 7 -7 7 -20 1 -23 -4 -23 -34z"/>
<path d="M3731 2850 c-11 -6 -8 -9 10 -13 23 -4 23 -4 2 -6 -34 -2 -32 -41 2
-41 20 0 25 5 25 24 0 29 -21 48 -39 36z m29 -40 c0 -5 -4 -10 -9 -10 -6 0
-13 5 -16 10 -3 6 1 10 9 10 9 0 16 -4 16 -10z"/>
<path d="M3288 2812 c-10 -2 -18 -8 -18 -13 0 -13 27 -11 35 2 9 13 4 16 -17
11z"/>
<path d="M3276 2699 c-9 -48 -8 -56 14 -62 17 -4 20 0 20 29 0 19 -4 34 -10
34 -5 0 -7 7 -4 15 4 8 2 15 -4 15 -5 0 -12 -14 -16 -31z m20 -46 c-10 -10
-19 5 -10 18 6 11 8 11 12 0 2 -7 1 -15 -2 -18z"/>
<path d="M3667 2719 c-9 -6 -17 -15 -17 -21 0 -9 3 -9 12 0 17 17 26 15 31 -5
4 -14 5 -13 6 4 1 27 -9 34 -32 22z"/>
<path d="M3141 2704 c0 -11 3 -14 6 -6 3 7 2 16 -1 19 -3 4 -6 -2 -5 -13z"/>
<path d="M3401 2683 c-1 -38 1 -43 22 -42 16 1 18 2 5 6 -22 5 -24 33 -3 33 8
0 15 5 15 10 0 6 -6 10 -14 10 -8 0 -17 6 -19 13 -3 6 -6 -7 -6 -30z"/>
<path d="M3553 2713 c24 -6 21 -47 -5 -67 l-23 -16 25 2 c22 3 25 8 28 46 3
38 1 42 -20 41 -17 -1 -18 -3 -5 -6z"/>
<path d="M3738 2710 c14 -6 22 -18 22 -35 0 -17 -7 -29 -22 -35 -13 -5 -16 -9
-8 -9 29 -1 42 16 38 50 -2 28 -7 34 -28 36 -25 3 -25 3 -2 -7z"/>
<path d="M3868 2713 c7 -3 16 -2 19 1 4 3 -2 6 -13 5 -11 0 -14 -3 -6 -6z"/>
<path d="M3923 2680 c2 -42 17 -57 17 -16 0 13 3 31 6 40 4 10 1 16 -9 16 -11
0 -15 -10 -14 -40z"/>
<path d="M3233 2696 c-7 -8 -18 -16 -25 -19 -17 -6 2 -41 26 -45 13 -3 16 5
16 37 0 46 0 46 -17 27z m7 -31 c0 -8 -4 -15 -10 -15 -5 0 -10 7 -10 15 0 8 5
15 10 15 6 0 10 -7 10 -15z"/>
<path d="M3477 2699 c-9 -6 -17 -21 -17 -35 0 -28 25 -43 43 -25 8 8 5 11 -13
11 -24 1 -24 1 -6 15 15 11 16 15 5 16 -8 0 -7 3 5 8 11 4 15 10 10 13 -5 4
-17 2 -27 -3z"/>
<path d="M3336 2690 c-2 -3 0 -16 5 -30 5 -19 7 -20 8 -6 1 10 9 25 19 32 16
12 15 13 -6 11 -13 -1 -25 -4 -26 -7z"/>
<path d="M3660 2648 c0 -12 7 -18 23 -17 15 0 17 2 7 6 -8 3 -18 11 -22 17 -5
7 -8 4 -8 -6z"/>
<path d="M3140 2636 c0 -9 5 -16 10 -16 6 0 10 4 10 9 0 6 -4 13 -10 16 -5 3
-10 -1 -10 -9z"/>
<path d="M3608 2633 c7 -3 16 -2 19 1 4 3 -2 6 -13 5 -11 0 -14 -3 -6 -6z"/>
<path d="M3212 2558 c-16 -16 -15 -50 3 -74 13 -18 14 -17 7 11 -11 40 -4 68
14 61 9 -3 12 -1 9 4 -8 13 -18 13 -33 -2z"/>
<path d="M3406 2562 c-2 -4 4 -8 15 -8 10 0 19 4 19 8 0 4 -6 8 -14 8 -8 0
-17 -4 -20 -8z"/>
<path d="M3465 2560 c-3 -4 4 -6 15 -3 11 3 20 1 20 -5 0 -6 -8 -13 -17 -15
-17 -4 -17 -5 0 -6 10 -1 17 -9 17 -20 0 -11 -8 -22 -17 -24 -14 -4 -12 -5 5
-6 22 -1 26 6 22 48 -1 13 3 27 10 31 6 4 -2 7 -19 8 -17 0 -33 -3 -36 -8z"/>
<path d="M3557 2550 c3 -11 7 -20 9 -20 2 0 4 9 4 20 0 11 -4 20 -9 20 -5 0
-7 -9 -4 -20z"/>
<path d="M3662 2523 l1 -48 4 43 c3 34 8 42 24 42 11 0 24 -10 29 -22 5 -14 9
-17 9 -7 1 22 -19 39 -46 39 -21 0 -23 -4 -21 -47z"/>
<path d="M3745 2563 c6 -4 10 -24 9 -43 -1 -26 -5 -34 -18 -32 -9 2 -16 -2
-16 -8 0 -15 26 -12 39 4 17 20 10 78 -9 83 -9 3 -11 1 -5 -4z"/>
<path d="M3151 2541 c-20 -13 -10 -55 14 -58 17 -2 17 -1 2 3 -11 4 -16 12
-13 21 3 8 6 20 6 26 0 7 4 6 10 -3 5 -8 12 -12 15 -9 10 11 -20 28 -34 20z"/>
<path d="M3270 2540 c0 -5 7 -7 15 -4 8 4 15 8 15 10 0 2 -7 4 -15 4 -8 0 -15
-4 -15 -10z"/>
<path d="M3920 2535 c0 -8 2 -15 4 -15 2 0 6 7 10 15 3 8 1 15 -4 15 -6 0 -10
-7 -10 -15z"/>
<path d="M3428 2510 c2 -16 6 -30 8 -30 2 0 4 14 4 30 0 17 -4 30 -8 30 -5 0
-7 -13 -4 -30z"/>
<path d="M3551 2513 c-1 -6 -4 -20 -7 -30 -5 -17 -5 -17 6 0 6 10 9 23 6 30
-3 9 -5 9 -5 0z"/>
<path d="M3270 2489 c0 -5 9 -9 20 -9 11 0 20 2 20 4 0 2 -9 6 -20 9 -11 3
-20 1 -20 -4z"/>
<path d="M3400 2490 c0 -5 5 -10 11 -10 5 0 7 5 4 10 -3 6 -8 10 -11 10 -2 0
-4 -4 -4 -10z"/>
<path d="M3340 2480 c0 -5 5 -10 10 -10 6 0 10 5 10 10 0 6 -4 10 -10 10 -5 0
-10 -4 -10 -10z"/>
<path d="M3800 2480 c0 -5 5 -10 10 -10 6 0 10 5 10 10 0 6 -4 10 -10 10 -5 0
-10 -4 -10 -10z"/>
<path d="M3280 2400 c0 -5 7 -10 15 -10 8 0 15 5 15 10 0 6 -7 10 -15 10 -8 0
-15 -4 -15 -10z"/>
<path d="M3530 2365 c0 -38 3 -45 19 -45 11 0 23 5 27 11 4 7 0 9 -14 5 -19
-6 -20 -4 -15 34 4 26 2 40 -6 40 -6 0 -11 -18 -11 -45z"/>
<path d="M3813 2385 c7 -13 14 -20 15 -14 5 14 -6 39 -17 39 -5 0 -4 -11 2
-25z"/>
<path d="M3875 2400 c3 -5 8 -10 11 -10 2 0 4 5 4 10 0 6 -5 10 -11 10 -5 0
-7 -4 -4 -10z"/>
<path d="M3171 2373 c0 -17 -8 -39 -17 -47 -14 -14 -14 -16 0 -16 18 0 30 37
23 71 -3 19 -5 17 -6 -8z"/>
<path d="M3730 2390 c0 -5 5 -10 11 -10 5 0 7 5 4 10 -3 6 -8 10 -11 10 -2 0
-4 -4 -4 -10z"/>
<path d="M3212 2368 c-22 -22 -14 -48 13 -48 21 0 25 5 25 30 0 31 -17 39 -38
18z m22 -30 c-9 -14 -23 2 -17 18 4 12 8 13 14 3 4 -7 5 -17 3 -21z"/>
<path d="M3268 2363 c-7 -27 2 -43 23 -43 14 0 19 7 19 30 0 23 -5 30 -19 30
-10 0 -21 -8 -23 -17z m32 -13 c0 -11 -4 -20 -10 -20 -5 0 -10 9 -10 20 0 11
5 20 10 20 6 0 10 -9 10 -20z"/>
<path d="M3337 2373 c-4 -3 -7 -17 -7 -30 0 -19 5 -23 28 -22 22 1 24 2 7 7
-11 4 -21 15 -23 25 -3 19 14 24 21 5 2 -7 8 -10 12 -6 4 4 4 11 0 17 -7 12
-28 14 -38 4z"/>
<path d="M3400 2350 c0 -16 4 -30 9 -30 5 0 7 9 4 20 -4 15 0 20 16 20 11 0
21 5 21 10 0 6 -11 10 -25 10 -21 0 -25 -5 -25 -30z"/>
<path d="M3561 2364 c0 -11 3 -14 6 -6 3 7 2 16 -1 19 -3 4 -6 -2 -5 -13z"/>
<path d="M3595 2360 c-3 -11 -3 -24 0 -30 8 -12 42 -13 49 -1 4 5 -3 7 -14 4
-15 -4 -20 0 -20 16 0 11 5 21 11 21 5 0 7 -4 4 -10 -3 -5 -1 -10 4 -10 6 0
11 7 11 15 0 22 -38 18 -45 -5z"/>
<path d="M3660 2371 c0 -5 9 -7 20 -4 11 3 20 7 20 9 0 2 -9 4 -20 4 -11 0
-20 -4 -20 -9z"/>
<path d="M3667 2343 c-12 -12 -7 -23 11 -23 13 0 14 2 3 9 -11 7 -11 9 0 14 8
3 9 6 3 6 -6 1 -14 -2 -17 -6z"/>
<path d="M3806 2325 c-3 -8 -1 -15 4 -15 6 0 10 7 10 15 0 8 -2 15 -4 15 -2 0
-6 -7 -10 -15z"/>
<path d="M3868 2323 c6 -2 18 -2 25 0 6 3 1 5 -13 5 -14 0 -19 -2 -12 -5z"/>
<path d="M3808 2200 c2 -27 7 -50 10 -50 4 0 5 22 4 50 -2 27 -7 50 -10 50 -4
0 -5 -22 -4 -50z"/>
<path d="M3738 2216 c-10 -7 -18 -25 -18 -40 0 -21 5 -26 25 -26 19 0 25 5 24
23 0 12 -3 30 -7 39 -6 14 -10 14 -24 4z m12 -16 c0 -5 -5 -10 -11 -10 -5 0
-7 5 -4 10 3 6 8 10 11 10 2 0 4 -4 4 -10z m0 -30 c0 -5 -4 -10 -10 -10 -5 0
-10 5 -10 10 0 6 5 10 10 10 6 0 10 -4 10 -10z"/>
<path d="M3144 2205 c-9 -22 3 -45 23 -45 17 1 17 1 1 11 -10 5 -18 16 -18 24
0 7 8 16 18 18 16 4 16 5 -1 6 -10 0 -20 -6 -23 -14z"/>
<path d="M3204 2205 c-9 -23 3 -45 25 -45 19 0 31 25 24 48 -6 17 -42 15 -49
-3z m39 -1 c9 -10 -4 -34 -19 -34 -8 0 -14 6 -14 13 0 22 19 35 33 21z"/>
<path d="M3270 2190 c0 -27 3 -31 23 -28 16 2 22 10 22 28 0 18 -6 26 -22 28
-20 3 -23 -1 -23 -28z m33 0 c-3 -11 -9 -20 -14 -20 -5 0 -9 9 -9 20 0 11 6
20 14 20 9 0 12 -7 9 -20z"/>
<path d="M3334 2205 c-10 -24 4 -45 28 -44 17 1 18 2 6 6 -22 5 -24 23 -3 23
8 0 15 7 15 15 0 8 -9 15 -20 15 -11 0 -23 -7 -26 -15z"/>
<path d="M3607 2213 c-4 -3 -7 -20 -6 -37 l1 -31 10 28 c5 15 14 27 19 27 6 0
7 5 4 10 -7 12 -19 13 -28 3z"/>
<path d="M3667 2209 c-21 -12 -22 -32 -2 -49 12 -10 19 -10 27 -2 9 9 8 12 -5
12 -9 0 -17 5 -17 10 0 6 7 10 15 10 8 0 15 4 15 9 0 16 -14 20 -33 10z"/>
<path d="M3613 2070 c-1 -11 2 -18 8 -15 11 7 12 35 1 35 -4 0 -8 -9 -9 -20z"/>
<path d="M3673 2083 c-19 -7 -17 -93 1 -93 17 0 26 22 26 60 0 31 -8 40 -27
33z m17 -23 c0 -5 -4 -10 -10 -10 -5 0 -10 5 -10 10 0 6 5 10 10 10 6 0 10 -4
10 -10z m0 -29 c0 -6 -4 -13 -10 -16 -5 -3 -10 1 -10 9 0 9 5 16 10 16 6 0 10
-4 10 -9z"/>
<path d="M3417 2052 c-23 -26 -22 -52 3 -52 22 0 26 20 8 38 -9 9 -8 12 5 12
9 0 17 5 17 10 0 16 -15 12 -33 -8z m7 -27 c3 -8 1 -15 -4 -15 -6 0 -10 7 -10
15 0 8 2 15 4 15 2 0 6 -7 10 -15z"/>
<path d="M3144 2025 c1 -19 4 -35 9 -35 7 0 11 23 8 47 -1 8 5 10 14 7 8 -3
15 -1 15 5 0 6 -10 11 -23 11 -20 0 -23 -5 -23 -35z"/>
<path d="M3226 2052 c15 -10 14 -42 -2 -42 -7 0 -15 10 -17 23 -4 19 -4 18 -6
-5 -1 -24 3 -28 24 -28 21 0 25 5 25 30 0 22 -5 30 -17 30 -11 0 -14 -3 -7 -8z"/>
<path d="M3270 2030 c0 -25 4 -30 23 -29 16 1 18 2 5 6 -10 2 -18 14 -18 25 0
14 5 18 15 14 8 -3 15 -1 15 4 0 6 -9 10 -20 10 -16 0 -20 -7 -20 -30z"/>
<path d="M3746 2035 c19 -15 19 -15 0 -30 -11 -8 -15 -15 -9 -15 17 0 34 26
27 44 -3 9 -13 16 -22 16 -13 0 -12 -3 4 -15z"/>
<path d="M3144 1896 c-11 -29 1 -71 21 -74 18 -2 18 -2 3 8 -21 13 -24 50 -6
68 9 9 9 12 0 12 -7 0 -15 -6 -18 -14z"/>
<path d="M3270 1870 c0 -35 3 -40 23 -39 15 1 17 3 5 6 -13 3 -15 12 -11 39 4
22 2 34 -6 34 -6 0 -11 -17 -11 -40z"/>
<path d="M3666 1880 c8 -43 14 -51 14 -19 0 13 -5 31 -10 39 -7 11 -8 5 -4
-20z"/>
<path d="M3237 1893 c-4 -6 -4 -18 -1 -26 3 -8 1 -18 -5 -22 -7 -4 -11 3 -11
16 0 17 -3 20 -11 12 -16 -16 -7 -46 14 -49 22 -3 30 14 25 53 -2 17 -6 23
-11 16z"/>
<path d="M3337 1883 c-4 -3 -7 -17 -7 -30 0 -27 26 -41 43 -24 9 9 8 11 -4 6
-10 -4 -20 -2 -24 4 -3 7 2 11 14 11 24 0 27 10 9 28 -14 14 -22 15 -31 5z"/>
<path d="M3729 1874 c-14 -17 -3 -45 22 -52 8 -2 5 2 -5 10 -24 18 -15 51 10
41 12 -4 15 -3 10 5 -10 16 -21 15 -37 -4z"/>
<path d="M3598 1873 c7 -3 16 -2 19 1 4 3 -2 6 -13 5 -11 0 -14 -3 -6 -6z"/>
<path d="M3605 1851 c19 -8 19 -8 0 -20 -20 -12 -20 -12 0 -9 30 5 33 38 3 37
-21 0 -21 -1 -3 -8z"/>
<path d="M3144 1736 c-10 -27 0 -81 16 -82 9 0 10 1 3 3 -20 7 -16 70 5 82 16
10 16 10 -1 11 -10 0 -20 -6 -23 -14z"/>
<path d="M3215 1695 c0 -29 3 -48 7 -42 10 16 10 85 1 90 -5 3 -8 -19 -8 -48z"/>
<path d="M3273 1735 c-3 -9 -3 -19 1 -22 3 -4 6 2 6 11 0 12 5 16 15 12 8 -3
15 -1 15 4 0 16 -30 11 -37 -5z"/>
<path d="M3346 1741 c-3 -5 1 -11 9 -15 15 -6 29 7 18 18 -9 9 -21 8 -27 -3z"/>
<path d="M3281 1697 c-8 -10 -7 -14 4 -14 8 0 15 6 15 14 0 7 -2 13 -4 13 -2
0 -9 -6 -15 -13z"/>
<path d="M3348 1703 c7 -3 16 -2 19 1 4 3 -2 6 -13 5 -11 0 -14 -3 -6 -6z"/>
<path d="M3396 1702 c-7 -11 4 -52 13 -52 17 0 19 13 4 28 -14 14 -14 17 3 23
16 7 17 8 2 8 -9 1 -19 -3 -22 -7z"/>
<path d="M3590 1680 c0 -23 4 -30 20 -30 11 0 20 5 20 11 0 5 -4 8 -9 4 -5 -3
-12 -1 -15 4 -4 5 -2 12 4 16 15 9 12 25 -5 25 -10 0 -15 -10 -15 -30z"/>
<path d="M3654 1695 c-13 -32 23 -63 40 -36 4 5 -3 7 -15 4 -17 -5 -20 -2 -17
13 2 10 11 18 21 18 9 -1 14 2 11 7 -8 14 -34 10 -40 -6z"/>
<path d="M3714 1695 c-9 -23 4 -47 23 -43 11 2 19 14 21 31 3 22 -1 27 -18 27
-11 0 -23 -7 -26 -15z m36 -21 c0 -14 -12 -19 -23 -8 -9 9 4 35 14 28 5 -3 9
-12 9 -20z"/>
<path d="M3275 1660 c-16 -7 -17 -9 -3 -9 9 -1 20 4 23 9 7 11 7 11 -20 0z"/>
<path d="M3340 1660 c0 -5 5 -10 11 -10 5 0 7 5 4 10 -3 6 -8 10 -11 10 -2 0
-4 -4 -4 -10z"/>
<path d="M3726 1523 c8 -46 11 -50 26 -35 9 9 9 12 -1 12 -8 0 -11 7 -8 20 3
11 0 20 -6 20 -7 0 -5 5 3 10 13 8 12 10 -3 10 -15 0 -17 -6 -11 -37z"/>
<path d="M3140 1533 c0 -15 2 -16 10 -3 9 13 11 13 20 0 7 -11 5 -16 -10 -18
-12 -2 -20 -11 -20 -24 0 -20 1 -19 24 3 14 13 21 30 18 41 -6 23 -42 24 -42
1z"/>
<path d="M3200 1525 c0 -14 2 -25 4 -25 2 0 6 11 8 25 3 14 1 25 -3 25 -5 0
-9 -11 -9 -25z"/>
<path d="M3235 1533 c1 -10 -2 -24 -8 -30 -7 -10 -4 -13 13 -13 16 0 20 4 16
16 -3 9 -6 22 -6 30 0 8 -4 14 -9 14 -5 0 -8 -8 -6 -17z"/>
<path d="M3277 1543 c-4 -3 -7 -17 -7 -30 0 -16 6 -23 19 -23 11 0 22 4 25 9
4 5 -4 7 -15 4 -19 -5 -21 -3 -17 20 6 29 5 31 -5 20z"/>
<path d="M3332 1523 c2 -20 9 -28 23 -28 14 0 21 8 23 28 3 23 0 27 -23 27
-23 0 -26 -4 -23 -27z m36 -6 c2 -10 -3 -17 -12 -17 -10 0 -16 9 -16 21 0 24
23 21 28 -4z"/>
<path d="M3588 1520 c6 -39 17 -39 18 0 1 17 -4 30 -11 30 -7 0 -10 -11 -7
-30z"/>
<path d="M3620 1521 c0 -17 5 -31 10 -31 6 0 10 11 10 24 0 14 -4 28 -10 31
-6 4 -10 -7 -10 -24z"/>
<path d="M3660 1519 c0 -24 4 -29 23 -28 16 1 18 2 5 6 -10 2 -18 11 -18 18 0
7 8 15 18 17 14 3 13 5 -5 10 -20 5 -23 2 -23 -23z"/>
<path d="M3400 1499 c0 -5 5 -7 10 -4 6 3 10 8 10 11 0 2 -4 4 -10 4 -5 0 -10
-5 -10 -11z"/>
<path d="M3340 1385 c0 -8 5 -15 10 -15 6 0 10 7 10 15 0 8 -4 15 -10 15 -5 0
-10 -7 -10 -15z"/>
<path d="M3667 1393 c-13 -13 -7 -33 11 -32 10 0 12 3 5 6 -7 2 -13 9 -13 15
0 6 7 7 16 4 8 -3 12 -2 9 4 -7 12 -19 13 -28 3z"/>
<path d="M3141 1358 c-1 -21 3 -38 8 -38 5 0 8 7 7 16 0 9 4 19 11 21 8 3 11
-3 8 -17 -2 -11 0 -18 6 -15 17 11 10 45 -10 45 -11 0 -22 6 -24 13 -3 6 -6
-5 -6 -25z"/>
<path d="M3748 1355 c3 -18 -1 -30 -14 -40 -16 -12 -17 -14 -3 -15 9 0 20 7
23 16 9 23 7 64 -3 64 -4 0 -6 -11 -3 -25z"/>
<path d="M3210 1345 c0 -14 5 -25 11 -25 5 0 7 5 3 12 -4 6 1 17 11 25 18 12
18 13 -3 13 -17 0 -22 -6 -22 -25z"/>
<path d="M3270 1346 c0 -14 4 -27 9 -30 13 -8 41 4 41 17 0 7 -4 7 -12 -1 -18
-18 -28 -15 -28 9 0 16 5 20 20 16 11 -3 18 -1 14 4 -3 5 -14 9 -25 9 -14 0
-19 -7 -19 -24z"/>
<path d="M3590 1339 c0 -26 3 -30 23 -27 16 2 23 11 25 31 3 23 0 27 -22 27
-22 0 -26 -4 -26 -31z m40 1 c0 -11 -7 -20 -15 -20 -8 0 -15 9 -15 20 0 11 7
20 15 20 8 0 15 -9 15 -20z"/>
<path d="M3348 1354 c-17 -17 -8 -44 15 -44 13 0 17 3 11 8 -7 4 -13 15 -15
25 -2 11 -7 15 -11 11z"/>
<path d="M3660 1309 c0 -5 5 -7 10 -4 6 3 10 8 10 11 0 2 -4 4 -10 4 -5 0 -10
-5 -10 -11z"/>
<path d="M3175 1160 c3 -44 15 -49 15 -7 0 21 -4 37 -9 37 -5 0 -8 -14 -6 -30z"/>
<path d="M3143 1150 c0 -16 4 -30 9 -30 4 0 8 14 8 30 0 17 -4 30 -8 30 -5 0
-9 -13 -9 -30z"/>
<path d="M3225 1170 c16 -7 16 -9 4 -9 -14 -1 -29 -20 -29 -37 0 -2 11 -4 25
-4 21 0 25 5 25 30 0 25 -4 30 -22 29 -22 0 -22 -1 -3 -9z m15 -30 c0 -5 -4
-10 -10 -10 -5 0 -10 5 -10 10 0 6 5 10 10 10 6 0 10 -4 10 -10z"/>
<path d="M3271 1148 c2 -30 2 -31 6 -5 4 27 17 35 28 17 3 -5 2 -10 -4 -10 -6
0 -8 -7 -5 -15 10 -25 23 -17 21 13 -2 20 -8 28 -25 30 -19 3 -22 -1 -21 -30z"/>
<path d="M3330 1155 c0 -16 6 -25 15 -25 21 0 19 -17 -2 -24 -11 -3 -7 -4 7
-3 22 2 25 6 22 36 -3 22 0 31 7 27 6 -4 11 -2 11 3 0 6 -13 11 -30 11 -25 0
-30 -4 -30 -25z m30 5 c0 -5 -4 -10 -10 -10 -5 0 -10 5 -10 10 0 6 5 10 10 10
6 0 10 -4 10 -10z"/>
<path d="M3524 1165 c-10 -24 4 -45 28 -44 l23 2 -22 4 c-27 5 -31 21 -6 19
10 0 19 7 21 17 4 22 -36 24 -44 2z m33 -1 c-3 -3 -12 -4 -19 -1 -8 3 -5 6 6
6 11 1 17 -2 13 -5z"/>
<path d="M3714 1166 c-10 -26 1 -51 21 -51 16 0 20 7 20 33 1 24 -4 32 -17 32
-10 0 -21 -6 -24 -14z m26 -26 c0 -11 -4 -20 -10 -20 -5 0 -10 9 -10 20 0 11
5 20 10 20 6 0 10 -9 10 -20z"/>
<path d="M3210 1035 c-19 -23 -3 -75 23 -75 17 0 19 2 7 10 -22 14 -25 67 -3
73 15 4 15 5 2 6 -9 0 -22 -6 -29 -14z"/>
<path d="M3330 1038 c0 -7 4 -19 9 -26 6 -10 10 -7 13 12 4 18 1 26 -8 26 -8
0 -14 -6 -14 -12z"/>
<path d="M3283 990 c-5 -22 -7 -37 -2 -35 9 6 23 64 17 70 -2 3 -9 -13 -15
-35z"/>
<path d="M3153 1014 c9 -3 17 -10 17 -16 0 -6 -8 -17 -17 -24 -17 -12 -16 -13
5 -14 20 0 23 4 20 27 -2 19 -9 28 -23 30 -16 1 -16 1 -2 -3z"/>
<path d="M3537 1003 c-9 -16 6 -73 19 -73 8 0 14 5 14 10 0 6 -5 10 -11 10 -7
0 -9 10 -7 25 5 24 -6 44 -15 28z"/>
<path d="M3730 988 c0 -17 2 -18 15 -8 8 7 15 14 15 15 0 2 -7 5 -15 9 -10 4
-15 -1 -15 -16z"/>
<path d="M3594 984 c3 -9 6 -24 6 -35 0 -13 5 -17 17 -12 11 4 12 8 5 11 -7 2
-12 13 -12 24 0 14 5 18 16 14 8 -3 12 -2 9 4 -3 6 -15 10 -27 10 -14 0 -18
-5 -14 -16z"/>
<path d="M3660 965 c0 -37 5 -41 30 -25 13 8 12 10 -2 10 -22 0 -24 18 -3 26
22 9 18 24 -5 24 -16 0 -20 -7 -20 -35z"/>
<path d="M3800 990 c0 -5 5 -9 11 -7 21 4 21 -24 0 -30 -21 -5 -30 -33 -11
-33 15 0 43 48 36 65 -6 17 -36 21 -36 5z"/>
<path d="M3730 940 c0 -5 7 -10 15 -10 8 0 15 5 15 10 0 6 -7 10 -15 10 -8 0
-15 -4 -15 -10z"/>
<path d="M3868 938 c9 -9 15 -9 24 0 9 9 7 12 -12 12 -19 0 -21 -3 -12 -12z"/>
<path d="M3666 851 c-4 -7 -5 -15 -2 -18 9 -9 19 4 14 18 -4 11 -6 11 -12 0z"/>
<path d="M3796 842 c-3 -5 1 -9 9 -9 8 0 15 4 15 9 0 4 -4 8 -9 8 -6 0 -12 -4
-15 -8z"/>
<path d="M3665 779 c-4 -6 -5 -13 -2 -16 7 -7 27 6 27 18 0 12 -17 12 -25 -2z"/>
<path d="M3792 778 c5 -15 28 -18 29 -3 0 6 -7 12 -17 13 -10 3 -15 -1 -12
-10z"/>
<path d="M4078 2209 c5 -47 -15 -54 -21 -6 -3 28 -4 26 -5 -10 -2 -37 1 -43
18 -43 17 0 20 7 20 44 0 25 -3 47 -8 50 -4 2 -6 -13 -4 -35z"/>
<path d="M4180 2165 c0 -8 4 -15 10 -15 5 0 7 7 4 15 -4 8 -8 15 -10 15 -2 0
-4 -7 -4 -15z"/>
<path d="M4120 2139 c0 -5 5 -7 10 -4 6 3 10 8 10 11 0 2 -4 4 -10 4 -5 0 -10
-5 -10 -11z"/>
<path d="M4055 2079 c-11 -4 -14 -8 -7 -8 7 -1 12 -16 12 -41 0 -22 4 -40 8
-40 4 0 6 16 4 36 -3 22 0 39 8 44 18 11 -2 19 -25 9z"/>
<path d="M4123 2074 c20 -6 22 -20 5 -27 -10 -4 -10 -6 0 -6 6 -1 12 -10 12
-22 0 -11 -4 -17 -10 -14 -5 3 -10 1 -10 -5 0 -6 8 -10 18 -8 13 2 17 13 17
43 0 35 -3 40 -25 42 -14 1 -18 0 -7 -3z"/>
<path d="M4000 1999 c0 -5 5 -7 10 -4 6 3 10 8 10 11 0 2 -4 4 -10 4 -5 0 -10
-5 -10 -11z"/>
<path d="M4190 2000 c0 -5 5 -10 10 -10 6 0 10 5 10 10 0 6 -4 10 -10 10 -5 0
-10 -4 -10 -10z"/>
<path d="M4122 1908 c-15 -19 -3 -78 16 -78 12 0 13 3 4 12 -17 17 -15 46 5
50 14 3 14 4 1 16 -12 10 -17 10 -26 0z"/>
<path d="M4183 1883 c-7 -2 -13 -17 -12 -31 1 -25 2 -23 15 17 3 11 7 11 19 1
12 -10 15 -9 15 4 0 16 -13 19 -37 9z"/>
<path d="M4244 1876 c-8 -21 -1 -49 13 -53 15 -5 35 31 27 51 -8 20 -33 21
-40 2z m26 -15 c0 -11 -4 -23 -10 -26 -6 -4 -10 5 -10 19 0 14 5 26 10 26 6 0
10 -9 10 -19z"/>
<path d="M3991 1848 c2 -28 2 -29 6 -8 3 14 10 28 17 32 7 5 5 8 -6 8 -14 0
-18 -8 -17 -32z"/>
<path d="M4044 1864 c3 -9 6 -20 6 -25 0 -5 10 -8 23 -8 16 1 18 2 5 6 -10 2
-18 11 -18 19 0 8 4 13 9 9 5 -3 12 -1 16 5 4 6 -5 10 -20 10 -21 0 -26 -4
-21 -16z"/>
<path d="M3986 1712 c-10 -16 7 -62 23 -61 10 0 11 2 4 6 -15 6 -17 33 -3 33
6 0 10 4 10 9 0 11 -28 22 -34 13z"/>
<path d="M3927 1703 c-4 -3 -7 -17 -7 -30 0 -18 5 -23 23 -22 17 1 18 2 4 6
-20 5 -19 40 1 36 7 -2 12 2 12 7 0 11 -23 14 -33 3z"/>
<path d="M4044 1695 c-9 -22 3 -45 23 -45 15 0 15 2 -3 15 -19 15 -19 15 0 30
18 13 18 15 3 15 -10 0 -20 -7 -23 -15z"/>
<path d="M4106 1695 c-8 -23 4 -45 24 -45 24 0 30 11 23 38 -6 25 -38 30 -47
7z m33 -34 c-14 -4 -30 19 -22 33 3 5 12 1 20 -10 10 -13 10 -20 2 -23z"/>
<path d="M4170 1680 c0 -16 4 -30 8 -30 5 0 8 10 8 21 -1 12 5 24 12 26 7 3
12 -5 12 -21 0 -14 4 -26 8 -26 5 0 7 14 4 30 -3 24 -9 30 -28 30 -20 0 -24
-5 -24 -30z"/>
<path d="M4240 1680 c0 -25 4 -30 25 -30 21 0 25 5 25 30 0 25 -4 30 -25 30
-21 0 -25 -5 -25 -30z m40 0 c0 -11 -7 -20 -15 -20 -15 0 -21 21 -8 33 12 13
23 7 23 -13z"/>
<path d="M4044 1557 c-3 -9 -4 -28 -2 -44 2 -20 8 -28 23 -28 17 0 20 7 20 40
0 30 -4 41 -18 43 -9 2 -20 -3 -23 -11z m34 -32 c-2 -14 -7 -26 -13 -26 -5 0
-11 12 -13 26 -2 18 1 25 13 25 12 0 15 -7 13 -25z"/>
<path d="M4130 1559 c0 -5 5 -7 10 -4 6 3 10 8 10 11 0 2 -4 4 -10 4 -5 0 -10
-5 -10 -11z"/>
<path d="M3948 1520 c-2 -22 0 -40 4 -40 5 0 8 18 8 40 0 22 -2 40 -4 40 -2 0
-6 -18 -8 -40z"/>
<path d="M4171 1522 c-1 -34 21 -54 41 -34 7 7 5 10 -8 9 -13 -2 -20 7 -25 28
l-7 30 -1 -33z"/>
<path d="M4174 1384 c3 -9 6 -31 6 -50 0 -26 4 -34 18 -33 10 0 12 3 5 6 -8 3
-13 23 -13 49 0 25 -5 44 -11 44 -6 0 -8 -7 -5 -16z"/>
<path d="M4110 1381 c0 -6 4 -13 10 -16 6 -3 7 1 4 9 -7 18 -14 21 -14 7z"/>
<path d="M3990 1359 c0 -5 8 -9 18 -9 14 0 15 -2 2 -10 -8 -5 -10 -10 -5 -10
6 0 3 -4 -5 -10 -8 -5 -11 -12 -7 -16 9 -10 23 5 31 32 5 16 2 23 -14 27 -11
3 -20 1 -20 -4z"/>
<path d="M4061 1353 c0 -12 -4 -30 -7 -40 -5 -17 -5 -17 6 0 6 10 9 28 7 40
-4 22 -4 22 -6 0z"/>
<path d="M4258 1185 c-2 -3 -3 -18 0 -35 3 -23 9 -30 26 -29 17 1 17 2 4 6
-19 5 -25 43 -7 43 5 0 7 5 4 10 -7 11 -19 13 -27 5z"/>
<path d="M4331 1181 c-9 -6 -10 -11 -2 -15 13 -8 31 1 31 15 0 11 -11 11 -29
0z"/>
<path d="M3940 1150 c0 -16 2 -30 4 -30 2 0 6 14 8 30 3 17 1 30 -4 30 -4 0
-8 -13 -8 -30z"/>
<path d="M3988 1150 c2 -16 9 -27 14 -24 5 3 7 13 3 22 -3 8 0 19 7 24 9 5 7
8 -8 8 -17 0 -20 -5 -16 -30z"/>
<path d="M4035 1170 c-6 -10 11 -50 21 -50 3 0 3 4 0 9 -3 5 3 11 14 14 29 8
26 37 -4 37 -14 0 -28 -4 -31 -10z m45 -10 c0 -5 -7 -10 -15 -10 -8 0 -15 5
-15 10 0 6 7 10 15 10 8 0 15 -4 15 -10z"/>
<path d="M4130 1176 c0 -2 7 -6 15 -10 8 -3 15 -1 15 4 0 6 -7 10 -15 10 -8 0
-15 -2 -15 -4z"/>
<path d="M4170 1150 c0 -16 5 -30 10 -30 6 0 10 11 10 25 0 34 18 32 22 -2 3
-27 4 -27 9 5 5 30 4 32 -23 32 -24 0 -28 -4 -28 -30z"/>
<path d="M4125 1151 c18 -9 18 -10 2 -10 -22 -1 -19 -36 3 -36 24 0 19 49 -5
52 -20 3 -20 3 0 -6z"/>
<path d="M4344 1142 c3 -6 -2 -13 -11 -15 -14 -4 -13 -5 5 -6 23 -1 30 13 10
25 -6 4 -8 3 -4 -4z"/>
<path d="M4110 1005 c0 -8 5 -15 11 -15 5 0 7 5 3 12 -5 8 -2 9 9 5 10 -3 17
-2 17 3 0 6 -9 10 -20 10 -11 0 -20 -7 -20 -15z"/>
</g>
</svg>
